<svg xmlns="http://www.w3.org/2000/svg" id="Layer_1" data-name="Layer 1" viewBox="0 0 718 78.64"><defs><style>.cls-1{fill:#fff}</style></defs><path d="M0 77.58v-5.21l7.52-1.99V7.5L0 5.68V.47L26.03 0v5.22l-7.52 2.29V70.4l7.52 1.97v5.21zM90.52 77.58v-5.21l7.52-1.98V26.56l-.82-.2-17.14 33.59-7.08.45-16.46-34.03-.82.19v43.87l7.52 1.94v5.21H39.43v-5.21l7.52-1.96V18.26l-7.52-1.81v-5.21l21.36-.47L77.9 48.56l17.86-37.31 19.83-.47v5.21l-7.52 2.3v52.1l7.52 1.98v5.21zM128.98 77.58v-5.21l7.52-2V18.24l-7.52-1.79v-5.21l19.24-.47h9.44c5.11 0 9.35.88 12.62 2.6 3.25 1.72 5.7 4.11 7.29 7.1 1.6 3.01 2.41 6.51 2.41 10.4 0 4.21-.97 8.05-2.88 11.4-1.91 3.35-4.83 6-8.68 7.88-3.87 1.89-8.89 2.85-14.9 2.85h-6.02v17.43l9.64 1.96v5.19h-28.15Zm18.52-32.3h6.12c4.85 0 8.62-1.29 11.2-3.84 2.58-2.54 3.89-6.01 3.89-10.29 0-3.95-1.09-7.1-3.25-9.36s-5.4-3.41-9.62-3.41h-8.34v26.89ZM234 77.58l-8.66-18.45c-1.15-2.56-2.22-4.58-3.16-5.99-.98-1.45-2.21-2.47-3.67-3.05-1.29-.51-3.04-.76-5.22-.76-.25 0-.52 0-.78.01h-3.99v21.02l8.58 2.02v5.2h-27.09v-5.21l7.52-1.98V18.32l-7.52-1.86v-5.22l19.44-.47h10.02c7.38 0 13.03 1.56 16.79 4.63 3.73 3.05 5.63 7.51 5.63 13.25 0 5.26-1.63 9.63-4.85 13.01-2.5 2.62-6.15 4.46-10.86 5.46l-.03.84c.75.21 1.32.42 1.81.65 1.54.74 2.84 1.76 3.85 3.02 1.03 1.28 2.04 2.86 2.99 4.7l7.25 14.22 5.72 1.8v5.23h-13.75Zm-25.48-35.67h6.79c4.96 0 8.8-1.05 11.4-3.13 2.63-2.1 3.97-5.21 3.97-9.25 0-3.52-1.07-6.28-3.18-8.22-2.09-1.93-5.32-2.91-9.59-2.91h-9.4v23.52ZM287.04 78.64c-5.81 0-10.96-1.28-15.3-3.79-4.34-2.52-7.77-6.31-10.19-11.29-2.43-4.99-3.67-11.26-3.67-18.61 0-5.84.77-11.03 2.29-15.43 1.52-4.39 3.69-8.1 6.46-11.03 2.77-2.93 6.07-5.15 9.82-6.59 3.75-1.45 7.96-2.19 12.52-2.19s8.51.72 12.13 2.14c3.62 1.42 6.78 3.54 9.39 6.31 2.61 2.77 4.69 6.26 6.17 10.36 1.49 4.11 2.24 8.96 2.24 14.41 0 7.48-1.36 13.95-4.05 19.23-2.68 5.27-6.44 9.38-11.16 12.21-4.73 2.84-10.33 4.28-16.65 4.28ZM288.39 18c-3.47 0-6.67.86-9.52 2.57-2.87 1.71-5.13 4.56-6.73 8.45-1.59 3.85-2.4 9.08-2.4 15.54 0 6 .76 10.96 2.25 14.72 1.5 3.79 3.65 6.62 6.38 8.4 2.72 1.77 5.93 2.67 9.54 2.67s6.78-.9 9.63-2.67c2.86-1.77 5.18-4.66 6.92-8.58 1.72-3.9 2.59-9.15 2.59-15.6 0-6.01-.81-10.94-2.4-14.68-1.6-3.76-3.82-6.54-6.58-8.25-2.76-1.71-6.01-2.57-9.67-2.57ZM351.84 77.67l-20.08-59.58-6.6-1.63v-5.22l26.71-.46v5.2l-7.79 1.98 14.7 48.44 16.09-48.17-7.77-1.78v-5.21l24.29-.46v5.2l-6.5 1.77-21.13 59.92zM399.59 77.58v-5.21l7.51-1.98V18.28l-7.51-1.82v-5.22l18.76-.47h29.05v15.81h-6.34l-1.51-8.1H418.1v21.31h15.64l1.38-5.2h4.91v17.83h-4.91l-1.37-5.21H418.1v22.65h22.64l1.58-8.77h6.24l-.09 16.49zM482.44 77.58v-5.21l7.52-1.94V7.46l-7.52-1.78V.47L509.25 0v5.21l-8.29 2.23v62.42h24.01l1.8-10.8h6.24v18.52zM544.77 77.58v-5.21l7.51-1.99v-52.1l-7.51-1.83v-5.21l26.03-.46v5.21l-7.52 2.29v52.13l7.52 1.96v5.21zM584.19 77.58v-5.21l7.52-1.96V18.34l-7.52-1.88v-5.22l18.77-.47h28.38l.09 15.91h-6.34l-1.49-8.2h-20.89v21.79h15.13l1.35-5.06h4.9v17.82h-4.9l-1.33-5.05h-15.15V70.4l9.35 1.98v5.2zM641.17 77.58v-5.21l7.52-1.98V18.28l-7.52-1.82v-5.22l18.76-.47h29.06v15.81h-6.35l-1.51-8.1h-21.45v21.31h15.68l1.38-5.2h4.91v17.83h-4.91l-1.37-5.21h-15.69v22.65h22.64l1.58-8.77h6.24l-.09 16.49zM711.68 78.35c-1.93 0-3.5-.57-4.66-1.71-1.18-1.15-1.75-2.62-1.75-4.51s.63-3.35 1.93-4.5c1.31-1.16 2.78-1.72 4.49-1.72 1.93 0 3.48.57 4.61 1.7 1.13 1.13 1.71 2.65 1.71 4.52s-.62 3.35-1.88 4.5c-1.26 1.14-2.75 1.72-4.43 1.72Z" class="cls-1"></path></svg>